<svg width="283" height="307" fill="none" xmlns="http://www.w3.org/2000/svg"><path d="M65.567 138.517l1.083 5.701s-5.708 15.05-28.158 12.842C16.042 154.852 1.338 141.588 1 120.355c0 0 1.31-9.5 1.1-12.926l5.292-1.142s.871 5.65 2.486 7.232c1.615 1.557 5.657 6.108 8.634 9.407 3.001 3.299 7.66 14.736 24.14 16.056 16.472 1.337 22.915-.465 22.915-.465z" fill="#FFC825"/><path d="M66.624 144.218s-2.579 1.43-3.424-2.114c-.846-3.536 2.342-3.587 2.342-3.587s1.953 3.324 1.082 5.701zM60.401 144.777s-20.505 7.782-34.803.558c-14.967-7.563-21.875-17.502-21.596-38.084" stroke="#000" stroke-width="2" stroke-miterlimit="10" stroke-linecap="round" stroke-linejoin="round"/><path d="M13.98 126.2c.794.144.575 1.387-.22 1.243-.812-.143-.584-1.387.22-1.243zM16.576 132.096c1.014.186.727 1.768-.288 1.574-1.006-.187-.719-1.76.288-1.574zM22.198 134.507c.947.178.685 1.658-.27 1.48-.956-.177-.685-1.666.27-1.48z" fill="#000"/><path d="M1.626 115.372c.042-2.58.338-5.16.862-7.681.034-.195.093-.423.262-.533.127-.085.28-.093.432-.102 1.47-.067 2.968.263 4.43.195a12.819 12.819 0 001.328 5.693" stroke="#000" stroke-width="2" stroke-miterlimit="10" stroke-linecap="round" stroke-linejoin="round"/><path d="M250.343 125.095c4.819 1.181 12.933 2.813 13.244 12.436.311 9.622-5.782 14.829-14.379 14.005-8.612-.808-12.467-6.264-12.109-16.555.357-10.275 13.244-9.886 13.244-9.886z" fill="#F38059"/><path d="M174.376 109.752s22.866 4.461 27.825 28.836c4.15 20.394 4.197 57.236 4.197 57.236s17.208-26.396 18.887-28.308l16.788 5.224s-11.254 55.65-34.416 63.811c-23.177 8.161-30.919-11.612-34.136-18.187-3.218-6.607-25.167-96.036.855-108.612z" fill="#B88884"/><path d="M241.607 174.947s7.213-9.576 13.089-17.13c5.875-7.555.637-20.551-5.037-25.385-5.674-4.835-10.073-6.311-13.011-2.316 0 0-4.415-2.705-6.513 2.316 0 0-4.415 1.819-4.617 6.156 0 0-2.938-.498-3.156 2.658 0 0 10.711 7.352 8.612 13.228-2.098 5.876-5.674 13.043-5.674 13.043l16.307 7.43z" fill="#B88884"/><path d="M257.26 151.365s6.234-.699 6.871-7.197c.637-6.513-4.726-17.037-11.659-19.073-6.933-2.037-11.705 2.704-11.705 2.704M250.343 142.458c-2.254-4.834-6.109-8.907-10.835-11.41M244 145.21c-2.674-4.85-6.964-8.783-12.032-11.006M236.896 144.541a18.944 18.944 0 00-8.689-6.171" stroke="#000" stroke-width="2" stroke-miterlimit="10" stroke-linecap="round" stroke-linejoin="round"/><path d="M220.559 142.458c4.819 1.182 12.933 2.814 13.244 12.436.311 9.622-5.783 14.83-14.379 14.006-8.612-.808-12.467-6.265-12.109-16.555.357-10.275 13.244-9.887 13.244-9.887z" fill="#F38059"/><path d="M222.362 141.23s-7.975-2.098-12.389 4.197c-4.415 6.296-2.938 17.348 1.476 20.644 4.415 3.295 14.488 4.088 18.887.435 4.4-3.653 7.136-21.918-7.974-25.276zM210.362 190.523a179.226 179.226 0 00-18.67 21.918" stroke="#000" stroke-width="2" stroke-miterlimit="10" stroke-linecap="round" stroke-linejoin="round"/><path d="M132.777 5.477c1.928-3.715 9.467-6.59 13.26-4.787 5.627 2.689 9.824 9.544 7.291 15.249 2.969-3.202 8.036-3.544 12.187-2.207 5.44 1.756 10.12 6.295 11.208 11.907 1.088 5.612-1.943 11.985-7.306 13.99 7.01.809 12.84 7.462 12.715 14.504-.124 7.057-6.171 13.492-13.213 14.068 1.524 5.223-.435 11.3-4.741 14.643-4.306 3.342-10.664 3.762-15.358 1.01-.886 4.85-4.602 9.079-9.296 10.586-4.695 1.508-10.182.234-13.726-3.186-1.99 4.554-6.716 7.772-11.69 7.959-4.974.17-9.917-2.705-12.234-7.104-2.829 2.16-6.964 1.958-10.073.248s-5.363-4.663-7.088-7.772c-1.15-2.052-2.13-4.275-2.27-6.622-.14-2.347.7-4.866 2.596-6.25-3.389.125-6.762-2.004-8.099-5.129-1.336-3.125-.544-7.042 1.897-9.405-3.125-2.3-4.601-6.637-3.513-10.368 1.072-3.73 4.632-6.622 8.503-6.902-1.897-2.13-2.037-5.627-.327-7.912s5.115-3.11 7.68-1.881c-2.363-3.98-1.058-9.498 2.378-12.591 3.435-3.094 8.55-3.918 13.042-2.83-1.135-2.829 2.176-9.373 8.456-11.658 7.897-2.876 17.24-1.71 17.721 2.44z" fill="#000"/><path d="M112.833 106.006s11.084-1.555 10.291-22.074c-.513-13.228 25.711-10.29 26.97 3.467 1.26 13.757 11.286 19.508 11.286 19.508s-3.404 13.338-21.405 12.607c-18.017-.746-27.142-13.508-27.142-13.508zM102.216 108.182s-22.245 9.063-26.862 29.348c-4.616 20.286-4.197 57.237-4.197 57.237S53.95 168.371 52.27 166.459l-16.788 5.223s11.254 55.651 34.416 63.812c23.178 8.161 30.919-11.612 34.137-18.187 3.217-6.607 24.218-96.549-1.819-109.125z" fill="#B88884"/><path d="M89.859 165.433s13.477 40.868 9.855 55.029c-3.622 14.161-9.855 33.468-9.855 33.468s56.132 16.773 100.357 2.985c0 0-9.747-27.655-10.493-38.769-.746-11.115 9.405-58.651 9.405-58.651s6.295-39.997-7.555-47.069c-14.581-7.446-68.226-12.871-81.859-1.197-13.648 11.658-9.855 54.204-9.855 54.204zM35.965 173.89s-7.213-9.576-13.09-17.131c-5.875-7.554-.637-20.55 5.037-25.384 5.674-4.835 10.073-6.311 13.011-2.316 0 0 4.415-2.705 6.514 2.316 0 0 4.414 1.818 4.616 6.155 0 0 2.938-.497 3.156 2.659 0 0-10.71 7.352-8.612 13.228 2.099 5.876 5.674 13.042 5.674 13.042l-16.306 7.431z" fill="#B88884"/><path d="M27.227 141.401c2.255-4.834 6.11-8.907 10.835-11.41M33.57 144.153c2.674-4.85 6.964-8.783 12.032-11.006M40.659 143.484a18.943 18.943 0 018.69-6.171" stroke="#000" stroke-width="2" stroke-miterlimit="10" stroke-linecap="round" stroke-linejoin="round"/><path d="M98.75 199.865s-7.12-24.529-9.373-32.24c-2.254-7.71 13.741-60.034 13.741-60.034s4.757-.824 9.716-1.585c0 0-2.72 34.54 27.126 35.411 29.846.87 21.918-34.401 21.918-34.401l10.12 1.772s20.488 45.08 15.964 61.216c-5.767 20.581-6.809 32.442-6.809 32.442s-67.402 5.067-82.403-2.581z" fill="#FEE8A5"/><path d="M113.575 76.202c2.851-2.122 2.865-6.93.03-10.738-2.835-3.809-7.444-5.176-10.295-3.053-2.852 2.122-2.865 6.93-.03 10.738 2.835 3.809 7.444 5.176 10.295 3.053z" fill="#B88884"/><path d="M110.922 69.864c6.14 16.773 22.959 26.38 35.116 21.934 12.156-4.446 13.99-20.815 9.544-38.116-5.021-19.524-16.307-29.427-33.748-22.23-11.969 4.928-17.052 21.64-10.912 38.412z" fill="#B88884"/><path d="M150.016 89.42c-5.518 4.15-13.524 3-19.617-.265M107.999 67.268c1.492 1.228 2.534 3 2.86 4.897M139.617 62.573c1.275 1.322 4.586 4.073 4.586 4.073-1.446.544-2.891 1.073-4.353 1.617" stroke="#000" stroke-width="2" stroke-miterlimit="10" stroke-linecap="round" stroke-linejoin="round"/><path d="M149.597 73.066s-1.197 7.446-6.14 7.508c-4.943.063-8.083-5.814-8.083-5.814l14.223-1.694z" fill="#fff"/><path d="M130.259 51.412c-3.777-.948-10.819 1.073-12.7 2.627" stroke="#000" stroke-width="3" stroke-miterlimit="10" stroke-linecap="round" stroke-linejoin="round"/><path d="M119.363 60.646s1.01-1.772 6.948-2.55c5.301-.683 7.042 4.229 7.042 4.229s-5.751 1.539-8.643 1.476c-2.891-.062-5.347-3.155-5.347-3.155z" fill="#fff"/><path d="M125.751 63.755a2.643 2.643 0 100-5.287 2.643 2.643 0 000 5.287z" fill="#000"/><path d="M132.746 62.03s-2.549-3.483-6.093-3.825c-3.591-.357-6.482.949-8.83 2.239M142.819 48.117c2.55-2.596 7.166-4.12 9.545-4.306" stroke="#000" stroke-width="3" stroke-miterlimit="10" stroke-linecap="round" stroke-linejoin="round"/><path d="M153.591 50.184s-1.958.467-4.989 1.664c-4.975 1.974-3.716 7.321-3.716 7.321s4.477-.17 7.446-2.813c2.161-1.928 1.259-6.172 1.259-6.172z" fill="#fff"/><path d="M149.037 58.05a2.643 2.643 0 100-5.285 2.643 2.643 0 000 5.285z" fill="#000"/><path d="M144.887 59.17s-.249-5.146 3.482-7.058c2.394-1.213 6.078-1.508 6.078-1.508" stroke="#000" stroke-width="3" stroke-miterlimit="10" stroke-linecap="round" stroke-linejoin="round"/><path d="M135.607 72.802c.202 1.306-.125 2.643-.715 3.824" stroke="#000" stroke-width="2" stroke-miterlimit="10" stroke-linecap="round" stroke-linejoin="round"/><path d="M130.664 33.334c-.063 5.192-4.586 9.948-9.778 10.244 2.689 1.99 3.544 6.093 1.881 8.985-1.663 2.906-5.643 4.228-8.721 2.89.964 1.758.498 4.058-.793 5.597-1.29 1.539-3.248 2.378-5.223 2.69-4.166.652-8.782-1.104-10.881-4.757-2.099-3.653-.948-9.016 2.782-10.96-1.88-3.45-1.554-7.974.778-11.13 2.347-3.155 6.591-4.756 10.43-3.964-.777-2.673.063-5.751 2.083-7.679 6.327-6.047 17.535-.202 17.442 8.084z" fill="#000"/><path d="M135.591 15.504c4.959-1.555 10.881 1.29 12.762 6.124 1.057-3.17 4.695-5.254 7.959-4.57 3.28.684 5.767 4.057 5.456 7.4 1.368-1.462 3.716-1.726 5.565-.98 1.85.746 3.265 2.348 4.166 4.135 1.912 3.746 1.679 8.705-1.15 11.83-2.829 3.124-8.27 3.684-11.285.746-2.705 2.86-7.104 3.948-10.835 2.705-3.731-1.26-6.576-4.788-6.995-8.705-2.317 1.554-5.488 1.725-7.959.404-7.679-4.135-5.596-16.602 2.316-19.09z" fill="#000"/><path d="M67.194 189.466a179.185 179.185 0 0118.669 21.918M96.03 191.471c3.497 8.767 4.15 18.483 3.062 27.857-1.088 9.373-3.84 18.467-6.995 27.358C82.785 272.91 79.8 286.683 79.8 305.695M183.516 188.051c-3.498 8.768-3.016 18.934-4.151 30.515-.932 9.389 3.84 18.467 6.995 27.359" stroke="#000" stroke-width="2" stroke-miterlimit="10" stroke-linecap="round" stroke-linejoin="round"/><path d="M142.307 232.743c1.01.559 1.648 1.725 1.57 2.891-.078 1.15-.855 2.238-1.928 2.658" stroke="#000" stroke-width="3" stroke-miterlimit="10" stroke-linecap="round" stroke-linejoin="round"/><path d="M89.75 155.671c-.638 8.332-1.166 17.224 2.89 24.53 3.747 6.778 11.395 11.208 19.136 11.115M188.801 157.956c.637 8.332 1.166 17.224-2.891 24.53-3.747 6.778-11.395 11.208-19.136 11.115M112.834 105.493c-.56 5.129.73 10.259 2.161 15.203 1.243 4.337 2.689 8.736 5.533 12.233 3.56 4.368 9.016 6.856 14.535 7.944 7.337 1.445 15.607.373 21.063-4.726 3.591-3.358 5.612-8.13 6.498-12.964.886-4.835.746-9.794.606-14.706M102.744 108.089a230.138 230.138 0 01-10.679 39.266M172.075 109.052a435.468 435.468 0 0010.477 31.339" stroke="#000" stroke-width="2" stroke-miterlimit="10" stroke-linecap="round" stroke-linejoin="round"/><path d="M220.17 97.814c6.887 3.808 12.436 9.995 15.452 17.254M233.073 97.891a33.779 33.779 0 0110.244 16.183" stroke="#000" stroke-width="3" stroke-miterlimit="10" stroke-linecap="round" stroke-linejoin="round"/><path d="M91.77 255.003c31.867 8.238 65.63 9.062 97.854 2.347 9.902 22.68 8.193 34.214 11.395 48.344" stroke="#000" stroke-width="2" stroke-miterlimit="10" stroke-linecap="round" stroke-linejoin="round"/></svg>